# xmcd CD database file
#
# Track frame offsets:
#	150
#	20282
#	51575
#
# Disc length: 4440 seconds
#
# Revision: 0
# Processed by: cddbd v1.5PL3 Copyright (c) Steve Scherf et al.
# Submitted via: CDex 1.50beta9
#
DISCID=20115603
DTITLE=SweetS - LolitA★Strawberry in summer
DYEAR=1900
DGENRE=Pop
TTITLE0=LolitA★Strawberry in summer
TTITLE1=LolitA★Strawberry in summer(instrumental)
TTITLE2=CCCD Data
EXTD=
EXTT0=
EXTT1=
EXTT2=
PLAYORDER=
